<svg xmlns="http://www.w3.org/2000/svg" xmlns:xlink="http://www.w3.org/1999/xlink" width="28" height="28" viewBox="0 0 28 28"><defs><style>.a{fill:#6d7686;}.b{clip-path:url(#a);}</style><clipPath id="a"><rect class="a" width="28" height="28" transform="translate(249 95)"/></clipPath></defs><g class="b" transform="translate(-249 -95)"><g transform="translate(249 95)"><path class="a" d="M25.667,15.4V2.8h1.4V1.4a1.375,1.375,0,0,0-1.4-1.4H2.333a1.375,1.375,0,0,0-1.4,1.4V2.8h1.4V15.4h.933V2.8H24.733V15.4Zm-23.8-14A.441.441,0,0,1,2.333.933H25.667a.441.441,0,0,1,.467.467v.467H1.867Zm0,0"/><path class="a" d="M23.8,19.6V17.733a1.375,1.375,0,0,0-1.4-1.4H5.6a1.375,1.375,0,0,0-1.4,1.4V19.6h8.4v5.6h-.933a1.375,1.375,0,0,0-1.4,1.4V28h7.467V26.6a1.375,1.375,0,0,0-1.4-1.4H15.4V19.6ZM5.133,17.733a.441.441,0,0,1,.467-.467H22.4a.441.441,0,0,1,.467.467v.933H5.133ZM16.8,26.6v.467H11.2V26.6a.441.441,0,0,1,.467-.467h4.667A.441.441,0,0,1,16.8,26.6Zm-2.333-1.4h-.933V19.6h.933Zm0,0"/><path class="a" d="M26.6,16.333a1.375,1.375,0,0,0-1.4,1.4v2.8a.441.441,0,0,1-.467.467h-2.8a1.4,1.4,0,1,0,0,2.8h2.8v2.333h-.467a1.375,1.375,0,0,0-1.4,1.4V28H23.8v-.467a.441.441,0,0,1,.467-.467h.467V28h.933v-.933h.467a.441.441,0,0,1,.467.467V28h.933v-.467a1.375,1.375,0,0,0-1.4-1.4h-.467V23.8A2.311,2.311,0,0,0,28,21.467V17.733A1.375,1.375,0,0,0,26.6,16.333Zm.467,5.133a1.375,1.375,0,0,1-1.4,1.4H21.933a.467.467,0,1,1,0-.933h2.8a1.375,1.375,0,0,0,1.4-1.4v-2.8a.467.467,0,0,1,.933,0Zm0,0"/><path class="a" d="M2.333,23.8v2.333H1.867a1.375,1.375,0,0,0-1.4,1.4V28H1.4v-.467a.441.441,0,0,1,.467-.467h.467V28h.933v-.933h.467a.441.441,0,0,1,.467.467V28h.933v-.467a1.375,1.375,0,0,0-1.4-1.4H3.267V23.8h2.8a1.4,1.4,0,1,0,0-2.8h-2.8a.441.441,0,0,1-.467-.467v-2.8a1.375,1.375,0,0,0-1.4-1.4,1.375,1.375,0,0,0-1.4,1.4v3.733A2.311,2.311,0,0,0,2.333,23.8Zm-1.4-6.067a.441.441,0,0,1,.467-.467.441.441,0,0,1,.467.467v2.8a1.375,1.375,0,0,0,1.4,1.4h2.8a.467.467,0,1,1,0,.933H2.333a1.375,1.375,0,0,1-1.4-1.4Zm0,0"/><path class="a" d="M14.467,5.133h8.867v.933H14.467Zm0,0"/><path class="a" d="M14.467,7.467h8.867V8.4H14.467Zm0,0"/><path class="a" d="M14.467,9.8h8.867v.933H14.467Zm0,0"/><path class="a" d="M14.467,12.133h8.867v.933H14.467Zm0,0"/><path class="a" d="M8.867,4.667a4.2,4.2,0,1,0,4.2,4.2V8.4H9.333V4.667Zm3.22,4.667A3.254,3.254,0,1,1,5.647,8.4,3.217,3.217,0,0,1,8.4,5.647V9.333Zm0,0"/><path class="a" d="M13.533,7a2.808,2.808,0,0,0-2.8-2.8h-.467V7.467h3.267ZM11.2,6.533V5.18a1.974,1.974,0,0,1,1.353,1.353Zm0,0"/></g></g></svg>