<svg xmlns="http://www.w3.org/2000/svg" width="18.436" height="28.46" viewBox="0 0 18.436 28.46"><defs><style>.a{fill:none;stroke:#6d7686;stroke-width:0.424px;}</style></defs><g transform="translate(-86.782 -65.786)"><g transform="translate(82 66)"><path class="a" d="M22.646,23.685v-.768L21.6,23.3l.839.477Z"/><path class="a" d="M7.41,20.136l3.312,2.017V20.377L7.41,18.359Z"/><path class="a" d="M21.776,20.245l.761-.263V18.205l-.761.264Z"/><path class="a" d="M15.85,22.266l5.279-1.83V18.659l-5.279,1.83Z"/><path class="a" d="M6.863,18.026,4.994,16.887v1.777L6.863,19.8Z"/><path class="a" d="M11.27,20.71v1.777l1.432.871,2.6-.9V20.679l-2.6.9Z"/><path class="a" d="M10.722,18.012,7.41,15.994v1.777l3.312,2.017Z"/><path class="a" d="M21.776,17.882l.761-.264V15.841l-.761.263Z"/><path class="a" d="M15.85,19.9l5.279-1.831V16.294L15.85,18.124Z"/><path class="a" d="M6.863,15.661,4.994,14.522V16.3l1.869,1.139Z"/><path class="a" d="M15.3,18.314l-2.6.9-1.432-.871v1.776l1.432.872,2.6-.9Z"/><path class="a" d="M10.722,15.563,7.41,13.546v1.777l3.312,2.017Z"/><path class="a" d="M21.776,15.433l.761-.264V13.392l-.761.264Z"/><path class="a" d="M15.85,17.453l5.279-1.831V13.845l-5.279,1.83Z"/><path class="a" d="M6.863,13.213,4.994,12.074v1.777L6.863,14.99Z"/><path class="a" d="M15.3,15.865l-2.6.9L11.27,15.9v1.777l1.432.872,2.6-.9Z"/><path class="a" d="M10.722,13.14,7.41,11.123V12.9l3.312,2.017Z"/><path class="a" d="M21.776,13.01l.761-.264V10.969l-.761.264Z"/><path class="a" d="M15.85,15.03,21.129,13.2V11.422L15.85,13.253Z"/><path class="a" d="M6.863,10.789,4.994,9.651v1.777l1.869,1.139Z"/><path class="a" d="M15.3,13.442l-2.6.9-1.432-.871V15.25l1.432.871,2.6-.9Z"/><path class="a" d="M10.722,10.691,7.41,8.674v1.777l3.312,2.017Z"/><path class="a" d="M21.776,10.561l.761-.264V8.52l-.761.264Z"/><path class="a" d="M15.85,12.581l5.279-1.831V8.973L15.85,10.8Z"/><path class="a" d="M6.863,8.341,4.994,7.2V8.979l1.869,1.138Z"/><path class="a" d="M15.3,10.993l-2.6.9-1.432-.871V12.8l1.432.871,2.6-.9Z"/><path class="a" d="M10.722,8.012,7.41,6V7.772l3.312,2.017Z"/><path class="a" d="M22.537,5.841l-.761.264V7.882l.761-.264Z"/><path class="a" d="M15.85,9.9l5.279-1.831V6.294L15.85,8.125Z"/><path class="a" d="M6.863,5.661,4.994,4.523V6.3L6.863,7.439Z"/><path class="a" d="M15.3,8.314l-2.6.9L11.27,8.345v1.777l1.432.872,2.6-.9Z"/><path class="a" d="M22.573,4.91V3.954a1.13,1.13,0,0,0-.793-1.034L14.873.094a1.274,1.274,0,0,0-.791-.056L5.806,2.114a.964.964,0,0,0-.812.93v.792l7.715,4.479Zm-10.28.863L6.618,2.816a.151.151,0,0,1,.032-.28L13.975.642A1.185,1.185,0,0,1,14.728.7l5.743,2.418a.151.151,0,0,1-.011.283L13.1,5.838A1.041,1.041,0,0,1,12.293,5.773Z"/><path class="a" d="M15.066,22.881l-2.366.9L5.051,19.195v4.331c.067.062,6.971,4.226,6.971,4.226a1.589,1.589,0,0,0,1.417.144l3.355-1.284.069-1.7L15.057,23.7Zm-8.49-.358-.512-.357V20.389l.512.342Zm2,1.265-.513-.359V21.653l.513.341v1.794Zm2.374,1.538-.512-.359V23.191l.512.34Zm3.321.554-.747.357v-2.1l.747-.29Z"/><path class="a" d="M21.992,22.806l-1.718-1.813-4.806,1.7,2.022,2.04Z"/><path class="a" d="M15.372,23.49l1.936,1.315-1.936-1.919Z"/><path class="a" d="M18.182,26.2l-1.047-.7v.752l1.593,1.137v-.321l-.546-.419Z"/><path class="a" d="M22.443,24.676v-.427l-1.289-.735-4.02,1.769,1.245.8v.5l.545.394v.486l4.082-2.118v-.359Z"/><path class="a" d="M21.129,20.777l-.378.131,1.823,1.777V20.325l-.9.264Z"/></g></g></svg>