<svg xmlns="http://www.w3.org/2000/svg" xmlns:xlink="http://www.w3.org/1999/xlink" width="16" height="16" viewBox="0 0 16 16"><defs><style>.a{fill:#6d7686;}.b{clip-path:url(#a);}</style><clipPath id="a"><rect class="a" width="16" height="16" transform="translate(-0.364 -0.364)"/></clipPath></defs><g class="b" transform="translate(0.364 0.364)"><path class="a" d="M7.187,12.788a.843.843,0,0,1-.556-.209c-.581-.508-1.141-.985-1.634-1.406l0,0a30.4,30.4,0,0,1-3.569-3.35A5.35,5.35,0,0,1,0,4.32,4.493,4.493,0,0,1,1.14,1.252,3.865,3.865,0,0,1,4.016,0,3.616,3.616,0,0,1,6.274.78a4.621,4.621,0,0,1,.913.953A4.621,4.621,0,0,1,8.1.78,3.616,3.616,0,0,1,10.359,0a3.865,3.865,0,0,1,2.875,1.252,4.493,4.493,0,0,1,1.14,3.068,5.35,5.35,0,0,1-1.426,3.5,30.392,30.392,0,0,1-3.568,3.35c-.495.422-1.056.9-1.638,1.408A.844.844,0,0,1,7.187,12.788ZM4.016.842a3.033,3.033,0,0,0-2.256.98,3.655,3.655,0,0,0-.917,2.5A4.5,4.5,0,0,0,2.074,7.285,29.914,29.914,0,0,0,5.54,10.531l0,0c.5.423,1.058.9,1.643,1.413.588-.512,1.151-.992,1.648-1.415A29.919,29.919,0,0,0,12.3,7.285,4.5,4.5,0,0,0,13.532,4.32a3.655,3.655,0,0,0-.917-2.5,3.032,3.032,0,0,0-2.256-.98,2.793,2.793,0,0,0-1.743.6A4.086,4.086,0,0,0,7.644,2.57a.531.531,0,0,1-.913,0,4.082,4.082,0,0,0-.972-1.124A2.793,2.793,0,0,0,4.016.842Zm0,0" transform="translate(0.55 1.343)"/></g></svg>