<svg xmlns="http://www.w3.org/2000/svg" xmlns:xlink="http://www.w3.org/1999/xlink" width="28" height="28" viewBox="0 0 28 28"><defs><style>.a{fill:#6d7686;}.b{clip-path:url(#a);}</style><clipPath id="a"><rect class="a" width="28" height="28" transform="translate(319 95)"/></clipPath></defs><g class="b" transform="translate(-319 -95)"><g transform="translate(319 95)"><path class="a" d="M28,14a1.882,1.882,0,0,0-.946-1.624l-1.559-.917,1.56-.927a1.867,1.867,0,0,0,0-3.246C25.106,6.126,18.5,2.2,15.24.331a2.489,2.489,0,0,0-2.487,0S3.894,5.538.946,7.284a1.867,1.867,0,0,0,0,3.247l1.56.927-1.559.917a1.867,1.867,0,0,0,0,3.247l1.56.927-1.559.917a1.867,1.867,0,0,0,0,3.247c2.522,1.5,8.72,5.179,11.815,6.954a2.48,2.48,0,0,0,2.482,0c3.094-1.774,9.292-5.453,11.814-6.954a1.867,1.867,0,0,0,0-3.247L25.5,16.549l1.56-.927A1.886,1.886,0,0,0,28,14ZM1.6,9.439a.63.63,0,0,1-.323-.53.623.623,0,0,1,.322-.529c2.944-1.744,11.791-6.94,11.79-6.939a1.208,1.208,0,0,1,1.223,0C17.857,3.3,24.459,7.222,26.4,8.379a.6.6,0,0,1,0,1.06c-2.518,1.5-8.709,5.174-11.8,6.942a1.213,1.213,0,0,1-1.217,0C10.3,14.612,4.114,10.936,1.6,9.439Zm24.809,9.123a.6.6,0,0,1,0,1.058c-2.518,1.5-8.709,5.174-11.8,6.942a1.213,1.213,0,0,1-1.217,0C10.3,24.794,4.114,21.118,1.6,19.621a.63.63,0,0,1-.323-.53.623.623,0,0,1,.322-.529l2.16-1.271c2.919,1.73,6.77,4,9.005,5.285a2.481,2.481,0,0,0,2.482,0c2.235-1.281,6.085-3.554,9-5.285Zm0-4.033c-2.518,1.5-8.709,5.174-11.8,6.942a1.213,1.213,0,0,1-1.217,0C10.3,19.7,4.114,16.027,1.6,14.53A.63.63,0,0,1,1.273,14a.623.623,0,0,1,.322-.529L3.754,12.2c2.919,1.73,6.77,4,9.005,5.285a2.481,2.481,0,0,0,2.482,0c2.235-1.281,6.085-3.554,9-5.285l2.16,1.271a.6.6,0,0,1,0,1.058Z"/></g></g></svg>