<svg xmlns="http://www.w3.org/2000/svg" xmlns:xlink="http://www.w3.org/1999/xlink" width="28" height="28" viewBox="0 0 28 28"><defs><style>.a{fill:#6d7686;}.b{clip-path:url(#a);}</style><clipPath id="a"><rect class="a" width="28" height="28" transform="translate(174 120)"/></clipPath></defs><g class="b" transform="translate(-174 -120)"><g transform="translate(174 120)"><path class="a" d="M27.59,25.539H26.551V24.5a.41.41,0,0,0-.82,0v1.039H13.417V13.371a.41.41,0,0,0-.41-.41H5.351a.41.41,0,0,0-.41.41V25.539H2.27V14a.41.41,0,0,0-.82,0V25.539H.41a.41.41,0,0,0-.41.41V27.59A.41.41,0,0,0,.41,28H27.59a.41.41,0,0,0,.41-.41V25.949A.41.41,0,0,0,27.59,25.539ZM5.761,13.781H12.6v.82H5.761v-.82Zm0,1.641H12.6V25.539H5.761V15.422ZM27.18,27.18H.82v-.82H27.18Z"/><path class="a" d="M23.229,15.578v0a.387.387,0,0,0-.028-.042l-.005-.006a.4.4,0,0,0-.03-.034l-.009-.008a.409.409,0,0,0-.031-.027l-.014-.009-.029-.02-3.82-2.236a.41.41,0,0,0-.414,0l-3.82,2.236L15,15.447l-.018.012-.026.023-.014.013c-.008.009-.016.018-.024.027l-.011.013c-.007.01-.014.02-.02.03l-.009.014c-.006.01-.011.022-.016.033l-.007.015c0,.011-.008.022-.011.034s0,.011-.006.017,0,.023-.007.034,0,.012,0,.018,0,.023,0,.034,0,.013,0,.02V20.3a.41.41,0,0,0,.2.355l3.82,2.219h0l.03.015.019.009.03.01.021.007.033.007.019,0a.41.41,0,0,0,.106,0l.017,0,.036-.007.021-.007.03-.01.022-.011.026-.013h0l3.82-2.219a.41.41,0,0,0,.2-.355V15.784A.41.41,0,0,0,23.229,15.578ZM18.644,21.8l-3-1.742V16.5l3,1.742Zm.41-4.276-3.006-1.746,3.006-1.759,3.006,1.759Zm3.41,2.534-3,1.742V18.238l3-1.742Z"/><path class="a" d="M27.125,3.021H25.293V1.791a.41.41,0,0,0-.41-.41H20.836a.41.41,0,0,0-.41.41v1.23h-.718V1.791a.41.41,0,0,0-.41-.41H15.251a.41.41,0,0,0-.41.41v1.23h-.184a.41.41,0,0,0,0,.82H26.715V9.3H1.285V3.842H12.893a.41.41,0,0,0,0-.82H10.306V.41A.41.41,0,0,0,9.9,0h-6.9a.41.41,0,0,0-.41.41V3.021H.875a.41.41,0,0,0-.41.41V9.707a.41.41,0,0,0,.41.41h.574v2.115a.41.41,0,0,0,.82,0V10.117H25.73V22.75a.41.41,0,0,0,.82,0V10.117h.574a.41.41,0,0,0,.41-.41V3.432A.41.41,0,0,0,27.125,3.021Zm-8.238,0H15.661V2.2h3.227Zm5.585,0H21.246V2.2h3.227Zm-17.346,0H5.1V2.2H7.127ZM3.405.82H9.486v2.2H9.076V1.791a.41.41,0,1,0-.82,0v1.23H7.947V1.791a.41.41,0,0,0-.41-.41H4.693a.41.41,0,0,0-.41.41v1.23H3.405Z"/><path class="a" d="M15.094,5.881H3.924a.41.41,0,0,0,0,.82H15.094a.41.41,0,0,0,0-.82Z"/><path class="a" d="M24.883,7.492h-3.4a.41.41,0,0,0,0,.82h3.4a.41.41,0,0,0,0-.82Z"/><path class="a" d="M22.127,4.451H13.443a.41.41,0,0,0,0,.82h8.684a.41.41,0,0,0,0-.82Z"/><path class="a" d="M17.785,7.155H16.74a.41.41,0,0,0,0,.82h1.045a.41.41,0,0,0,0-.82Z"/><path class="a" d="M5.351,7.492H2.472a.41.41,0,0,0,0,.82H5.351a.41.41,0,0,0,0-.82Z"/></g></g></svg>