<svg xmlns="http://www.w3.org/2000/svg" xmlns:xlink="http://www.w3.org/1999/xlink" width="28" height="28" viewBox="0 0 28 28"><defs><style>.a{fill:#6d7686;}.b{clip-path:url(#a);}</style><clipPath id="a"><rect class="a" width="28" height="28" transform="translate(22 66)"/></clipPath></defs><g class="b" transform="translate(-22 -66)"><g transform="translate(21.548 66.225)"><path class="a" d="M26.194,23.935h-2.71V9.484a.452.452,0,0,0-.184-.361L14.719,2.8a.452.452,0,0,0-.536,0L5.6,9.123a.452.452,0,0,0-.184.361V23.935H.9a.452.452,0,1,0,0,.9h25.29a.452.452,0,1,0,0-.9Zm-16.258,0V18.516h2.71v5.419Zm3.613,0V18.065a.452.452,0,0,0-.452-.452H9.484a.452.452,0,0,0-.452.452v5.871h-.9V10.625l6.323-4.658,6.323,4.658V23.935Zm8.129,0V10.4a.452.452,0,0,0-.184-.361L14.719,5.044a.452.452,0,0,0-.536,0L7.41,10.035a.452.452,0,0,0-.184.361V23.935h-.9V9.712l8.129-5.99,8.129,5.99V23.935Z"/><path class="a" d="M28,23.935h-.452a.452.452,0,0,0,0,.9H28a.452.452,0,0,0,0-.9Z"/><path class="a" d="M19.419,17.613H14.9a.452.452,0,0,0-.452.452v2.71a.452.452,0,0,0,.452.452h4.516a.452.452,0,0,0,.452-.452v-2.71A.452.452,0,0,0,19.419,17.613Zm-4.065,2.71V18.516H16.71v1.806Zm3.613,0H17.613V18.516h1.355Z"/><path class="a" d="M19.419,11.29H9.484a.452.452,0,0,0-.452.452v2.71a.452.452,0,0,0,.452.452h9.935a.452.452,0,0,0,.452-.452v-2.71A.452.452,0,0,0,19.419,11.29ZM18.968,14H9.935V12.194h9.032Z"/></g></g></svg>