<svg xmlns="http://www.w3.org/2000/svg" xmlns:xlink="http://www.w3.org/1999/xlink" width="28" height="28" viewBox="0 0 28 28"><defs><style>.a{fill:#c4c4c4;}.b{clip-path:url(#a);}.c{fill:none;stroke-width:1.304px;}.c,.d{stroke:#2a2e43;}.d{fill:#2a2e43;stroke-width:0.156px;}</style><clipPath id="a"><rect class="a" width="28" height="28" transform="translate(140 19)"/></clipPath></defs><g class="b" transform="translate(-140 -19)"><g transform="translate(151.002 -149.417)"><path class="c" d="M3.337,11.68h.7a8.331,8.331,0,0,0,15.277,0h.7a.837.837,0,0,0,.834-.834V5.84a.837.837,0,0,0-.834-.834h-.7a8.331,8.331,0,0,0-15.277,0h-.7A.837.837,0,0,0,2.5,5.84v5.006A.837.837,0,0,0,3.337,11.68ZM5.423,7.091a2.323,2.323,0,0,1,2.5-2.086h7.508a2.323,2.323,0,0,1,2.5,2.086V8.343a5.007,5.007,0,0,1-5.006,5.006h-2.5A5.007,5.007,0,0,1,5.423,8.343Zm11.659,9.667a9.942,9.942,0,0,1-10.8,0A6.988,6.988,0,0,0,0,23.693v.5a2.5,2.5,0,0,0,2.5,2.5H6.674V23.359a1.667,1.667,0,0,1,1.669-1.669h6.674a1.667,1.667,0,0,1,1.669,1.669V26.7h4.171a2.5,2.5,0,0,0,2.5-2.5v-.5A6.988,6.988,0,0,0,17.082,16.758Zm-2.9,6.6a.834.834,0,1,0,.834.834A.834.834,0,0,0,14.183,23.359Zm-5.006,0a.837.837,0,0,0-.834.834v2.5h1.669v-2.5a.837.837,0,0,0-.834-.834Z" transform="translate(-8.682 169.069)"/><path class="d" d="M2.438,2.661l1.147.382.391,1.564a.209.209,0,0,0,.406,0l.391-1.564,1.147-.382a.209.209,0,0,0,0-.4L4.77,1.9,4.441.253a.209.209,0,0,0-.2-.168A.213.213,0,0,0,4.034.24L3.588,1.882l-1.15.383a.209.209,0,0,0,0,.4Zm1.389-.419A.209.209,0,0,0,3.963,2.1l.242-.892.178.892a.209.209,0,0,0,.141.159l.655.209-.649.216a.209.209,0,0,0-.137.148l-.215.864-.216-.863a.209.209,0,0,0-.137-.148l-.66-.22Z" transform="translate(1.732 175.15)"/></g></g></svg>