<svg xmlns="http://www.w3.org/2000/svg" xmlns:xlink="http://www.w3.org/1999/xlink" width="28" height="28" viewBox="0 0 28 28"><defs><style>.a{fill:#2a2e43;}.b{clip-path:url(#a);}</style><clipPath id="a"><rect class="a" width="28" height="28" transform="translate(71 751)"/></clipPath></defs><g class="b" transform="translate(-71 -751)"><path class="a" d="M14,24.911a1.642,1.642,0,0,1-1.082-.407c-1.131-.989-2.222-1.919-3.184-2.738l0,0a59.215,59.215,0,0,1-6.952-6.525A10.422,10.422,0,0,1,0,8.415,8.751,8.751,0,0,1,2.221,2.438,7.529,7.529,0,0,1,7.822,0a7.043,7.043,0,0,1,4.4,1.519A9,9,0,0,1,14,3.376a9,9,0,0,1,1.779-1.857A7.043,7.043,0,0,1,20.178,0a7.53,7.53,0,0,1,5.6,2.438A8.751,8.751,0,0,1,28,8.415a10.421,10.421,0,0,1-2.777,6.822,59.2,59.2,0,0,1-6.951,6.525c-.964.821-2.056,1.752-3.19,2.744A1.643,1.643,0,0,1,14,24.911ZM7.822,1.64a5.907,5.907,0,0,0-4.4,1.909A7.119,7.119,0,0,0,1.64,8.415a8.769,8.769,0,0,0,2.4,5.775,58.27,58.27,0,0,0,6.753,6.323l.005,0c.966.823,2.061,1.756,3.2,2.753,1.146-1,2.243-1.933,3.211-2.757A58.28,58.28,0,0,0,23.96,14.19a8.77,8.77,0,0,0,2.4-5.775A7.119,7.119,0,0,0,24.573,3.55,5.907,5.907,0,0,0,20.178,1.64a5.44,5.44,0,0,0-3.4,1.176,7.959,7.959,0,0,0-1.893,2.19,1.035,1.035,0,0,1-1.779,0,7.952,7.952,0,0,0-1.893-2.19A5.44,5.44,0,0,0,7.822,1.64Zm0,0" transform="translate(71 752.544)"/></g></svg>